<mxfile host="app.diagrams.net" modified="2024-06-26T14:33:18.827Z" agent="Mozilla/5.0 (Windows NT 10.0; Win64; x64) AppleWebKit/537.36 (KHTML, like Gecko) Chrome/126.0.0.0 Safari/537.36" etag="r8D9ZTpjVNS88PUp7kR-" version="24.6.3" type="device">
  <diagram id="C5RBs43oDa-KdzZeNtuy" name="Page-1">
    <mxGraphModel dx="1434" dy="738" grid="1" gridSize="10" guides="1" tooltips="1" connect="1" arrows="1" fold="1" page="1" pageScale="1" pageWidth="827" pageHeight="1169" background="none" math="0" shadow="0">
      <root>
        <mxCell id="WIyWlLk6GJQsqaUBKTNV-0" />
        <mxCell id="WIyWlLk6GJQsqaUBKTNV-1" parent="WIyWlLk6GJQsqaUBKTNV-0" />
        <mxCell id="h4kbXoZ9OTJhTepq6cxY-82" value="" style="rounded=0;whiteSpace=wrap;html=1;strokeColor=#FF0080;" parent="WIyWlLk6GJQsqaUBKTNV-1" vertex="1">
          <mxGeometry y="140" width="820" height="930" as="geometry" />
        </mxCell>
        <mxCell id="h4kbXoZ9OTJhTepq6cxY-70" value="" style="rounded=0;whiteSpace=wrap;html=1;shadow=0;strokeColor=#FF8000;" parent="WIyWlLk6GJQsqaUBKTNV-1" vertex="1">
          <mxGeometry x="16" y="375" width="795" height="490" as="geometry" />
        </mxCell>
        <mxCell id="WIyWlLk6GJQsqaUBKTNV-12" value="&lt;b&gt;Metadata Public Service&lt;/b&gt;" style="rounded=1;whiteSpace=wrap;html=1;fontSize=12;glass=0;strokeWidth=1;shadow=0;" parent="WIyWlLk6GJQsqaUBKTNV-1" vertex="1">
          <mxGeometry x="620" y="455" width="160" height="80" as="geometry" />
        </mxCell>
        <mxCell id="h4kbXoZ9OTJhTepq6cxY-0" value="&lt;b&gt;Pricing Data Service&lt;/b&gt;" style="rounded=1;whiteSpace=wrap;html=1;fontSize=12;glass=0;strokeWidth=1;shadow=0;" parent="WIyWlLk6GJQsqaUBKTNV-1" vertex="1">
          <mxGeometry x="500" y="670" width="180" height="70" as="geometry" />
        </mxCell>
        <mxCell id="h4kbXoZ9OTJhTepq6cxY-34" style="edgeStyle=orthogonalEdgeStyle;rounded=0;orthogonalLoop=1;jettySize=auto;html=1;" parent="WIyWlLk6GJQsqaUBKTNV-1" source="h4kbXoZ9OTJhTepq6cxY-1" target="h4kbXoZ9OTJhTepq6cxY-33" edge="1">
          <mxGeometry relative="1" as="geometry">
            <Array as="points">
              <mxPoint x="130" y="560" />
              <mxPoint x="130" y="560" />
            </Array>
          </mxGeometry>
        </mxCell>
        <mxCell id="h4kbXoZ9OTJhTepq6cxY-35" value="Approves/ Rejects" style="edgeLabel;html=1;align=center;verticalAlign=middle;resizable=0;points=[];" parent="h4kbXoZ9OTJhTepq6cxY-34" vertex="1" connectable="0">
          <mxGeometry x="0.2986" y="-1" relative="1" as="geometry">
            <mxPoint as="offset" />
          </mxGeometry>
        </mxCell>
        <mxCell id="h4kbXoZ9OTJhTepq6cxY-1" value="&lt;b&gt;Approval Service&lt;/b&gt;" style="rounded=1;whiteSpace=wrap;html=1;fontSize=12;glass=0;strokeWidth=1;shadow=0;" parent="WIyWlLk6GJQsqaUBKTNV-1" vertex="1">
          <mxGeometry x="80" y="665" width="140" height="70" as="geometry" />
        </mxCell>
        <mxCell id="h4kbXoZ9OTJhTepq6cxY-3" value="Postgres DB" style="shape=cylinder3;whiteSpace=wrap;html=1;boundedLbl=1;backgroundOutline=1;size=18.33333333333337;" parent="WIyWlLk6GJQsqaUBKTNV-1" vertex="1">
          <mxGeometry x="338" y="890" width="114" height="160" as="geometry" />
        </mxCell>
        <mxCell id="WIyWlLk6GJQsqaUBKTNV-3" value="API Gateway" style="rounded=1;whiteSpace=wrap;html=1;fontSize=12;glass=0;strokeWidth=1;shadow=0;" parent="WIyWlLk6GJQsqaUBKTNV-1" vertex="1">
          <mxGeometry x="365" y="190" width="165" height="110" as="geometry" />
        </mxCell>
        <mxCell id="h4kbXoZ9OTJhTepq6cxY-9" value="&lt;b&gt;Request Service&lt;/b&gt;" style="rounded=1;whiteSpace=wrap;html=1;fontSize=12;glass=0;strokeWidth=1;shadow=0;" parent="WIyWlLk6GJQsqaUBKTNV-1" vertex="1">
          <mxGeometry x="300" y="660" width="150" height="80" as="geometry" />
        </mxCell>
        <mxCell id="h4kbXoZ9OTJhTepq6cxY-11" value="QUANTS" style="shape=umlActor;verticalLabelPosition=bottom;verticalAlign=top;html=1;outlineConnect=0;" parent="WIyWlLk6GJQsqaUBKTNV-1" vertex="1">
          <mxGeometry x="318" y="40" width="30" height="60" as="geometry" />
        </mxCell>
        <mxCell id="h4kbXoZ9OTJhTepq6cxY-12" value="OPS" style="shape=umlActor;verticalLabelPosition=bottom;verticalAlign=top;html=1;outlineConnect=0;" parent="WIyWlLk6GJQsqaUBKTNV-1" vertex="1">
          <mxGeometry x="540" y="40" width="30" height="60" as="geometry" />
        </mxCell>
        <mxCell id="WIyWlLk6GJQsqaUBKTNV-7" value="&lt;b&gt;Auth Service&lt;/b&gt;&lt;div&gt;- API Keys validation&lt;/div&gt;" style="rounded=1;whiteSpace=wrap;html=1;fontSize=12;glass=0;strokeWidth=1;shadow=0;" parent="WIyWlLk6GJQsqaUBKTNV-1" vertex="1">
          <mxGeometry x="340" y="450" width="162.5" height="95" as="geometry" />
        </mxCell>
        <mxCell id="h4kbXoZ9OTJhTepq6cxY-33" value="&lt;b&gt;Notification Service&lt;/b&gt;" style="rounded=1;whiteSpace=wrap;html=1;fontSize=12;glass=0;strokeWidth=1;shadow=0;" parent="WIyWlLk6GJQsqaUBKTNV-1" vertex="1">
          <mxGeometry x="80" y="450" width="180" height="90" as="geometry" />
        </mxCell>
        <mxCell id="h4kbXoZ9OTJhTepq6cxY-36" style="edgeStyle=orthogonalEdgeStyle;rounded=0;orthogonalLoop=1;jettySize=auto;html=1;" parent="WIyWlLk6GJQsqaUBKTNV-1" source="h4kbXoZ9OTJhTepq6cxY-72" target="h4kbXoZ9OTJhTepq6cxY-11" edge="1">
          <mxGeometry relative="1" as="geometry">
            <mxPoint x="280" y="110" as="targetPoint" />
            <Array as="points">
              <mxPoint x="170" y="70" />
            </Array>
          </mxGeometry>
        </mxCell>
        <mxCell id="h4kbXoZ9OTJhTepq6cxY-39" value="" style="endArrow=classic;startArrow=classic;html=1;rounded=0;entryX=0;entryY=0.5;entryDx=0;entryDy=0;" parent="WIyWlLk6GJQsqaUBKTNV-1" source="WIyWlLk6GJQsqaUBKTNV-3" target="WIyWlLk6GJQsqaUBKTNV-12" edge="1">
          <mxGeometry width="50" height="50" relative="1" as="geometry">
            <mxPoint x="555" y="290" as="sourcePoint" />
            <mxPoint x="605" y="240" as="targetPoint" />
          </mxGeometry>
        </mxCell>
        <mxCell id="h4kbXoZ9OTJhTepq6cxY-40" value="" style="endArrow=classic;startArrow=classic;html=1;rounded=0;exitX=0.692;exitY=-0.021;exitDx=0;exitDy=0;exitPerimeter=0;" parent="WIyWlLk6GJQsqaUBKTNV-1" source="WIyWlLk6GJQsqaUBKTNV-3" target="h4kbXoZ9OTJhTepq6cxY-12" edge="1">
          <mxGeometry width="50" height="50" relative="1" as="geometry">
            <mxPoint x="450" y="220" as="sourcePoint" />
            <mxPoint x="500" y="170" as="targetPoint" />
          </mxGeometry>
        </mxCell>
        <mxCell id="h4kbXoZ9OTJhTepq6cxY-41" value="" style="endArrow=classic;startArrow=classic;html=1;rounded=0;exitX=0.429;exitY=0;exitDx=0;exitDy=0;exitPerimeter=0;" parent="WIyWlLk6GJQsqaUBKTNV-1" source="WIyWlLk6GJQsqaUBKTNV-3" target="h4kbXoZ9OTJhTepq6cxY-11" edge="1">
          <mxGeometry width="50" height="50" relative="1" as="geometry">
            <mxPoint x="410" y="220" as="sourcePoint" />
            <mxPoint x="460" y="170" as="targetPoint" />
          </mxGeometry>
        </mxCell>
        <mxCell id="h4kbXoZ9OTJhTepq6cxY-42" value="HTTP req/res" style="edgeLabel;html=1;align=center;verticalAlign=middle;resizable=0;points=[];" parent="h4kbXoZ9OTJhTepq6cxY-41" vertex="1" connectable="0">
          <mxGeometry x="-0.29" y="-2" relative="1" as="geometry">
            <mxPoint x="48" as="offset" />
          </mxGeometry>
        </mxCell>
        <mxCell id="h4kbXoZ9OTJhTepq6cxY-43" value="" style="endArrow=classic;startArrow=classic;html=1;rounded=0;entryX=0.989;entryY=0.929;entryDx=0;entryDy=0;entryPerimeter=0;exitX=0.639;exitY=-0.021;exitDx=0;exitDy=0;exitPerimeter=0;" parent="WIyWlLk6GJQsqaUBKTNV-1" source="h4kbXoZ9OTJhTepq6cxY-0" target="WIyWlLk6GJQsqaUBKTNV-7" edge="1">
          <mxGeometry width="50" height="50" relative="1" as="geometry">
            <mxPoint x="580" y="520" as="sourcePoint" />
            <mxPoint x="630" y="470" as="targetPoint" />
          </mxGeometry>
        </mxCell>
        <mxCell id="h4kbXoZ9OTJhTepq6cxY-44" value="" style="endArrow=classic;startArrow=classic;html=1;rounded=0;entryX=0.548;entryY=1;entryDx=0;entryDy=0;entryPerimeter=0;exitX=0.597;exitY=0.021;exitDx=0;exitDy=0;exitPerimeter=0;" parent="WIyWlLk6GJQsqaUBKTNV-1" source="h4kbXoZ9OTJhTepq6cxY-9" target="WIyWlLk6GJQsqaUBKTNV-7" edge="1">
          <mxGeometry width="50" height="50" relative="1" as="geometry">
            <mxPoint x="400" y="505" as="sourcePoint" />
            <mxPoint x="450" y="455" as="targetPoint" />
          </mxGeometry>
        </mxCell>
        <mxCell id="h4kbXoZ9OTJhTepq6cxY-47" value="" style="endArrow=classic;html=1;rounded=0;exitX=0.208;exitY=1;exitDx=0;exitDy=0;exitPerimeter=0;entryX=0;entryY=0;entryDx=0;entryDy=52.5;entryPerimeter=0;" parent="WIyWlLk6GJQsqaUBKTNV-1" source="h4kbXoZ9OTJhTepq6cxY-1" target="h4kbXoZ9OTJhTepq6cxY-3" edge="1">
          <mxGeometry width="50" height="50" relative="1" as="geometry">
            <mxPoint x="250.88000000000005" y="560" as="sourcePoint" />
            <mxPoint x="270" y="730" as="targetPoint" />
          </mxGeometry>
        </mxCell>
        <mxCell id="h4kbXoZ9OTJhTepq6cxY-48" value="Updates req status" style="edgeLabel;html=1;align=center;verticalAlign=middle;resizable=0;points=[];" parent="h4kbXoZ9OTJhTepq6cxY-47" vertex="1" connectable="0">
          <mxGeometry x="-0.0103" y="-4" relative="1" as="geometry">
            <mxPoint x="-48" y="-78" as="offset" />
          </mxGeometry>
        </mxCell>
        <mxCell id="h4kbXoZ9OTJhTepq6cxY-49" value="" style="endArrow=classic;html=1;rounded=0;entryX=0.711;entryY=0.031;entryDx=0;entryDy=0;entryPerimeter=0;exitX=0.826;exitY=1;exitDx=0;exitDy=0;exitPerimeter=0;" parent="WIyWlLk6GJQsqaUBKTNV-1" source="h4kbXoZ9OTJhTepq6cxY-9" target="h4kbXoZ9OTJhTepq6cxY-3" edge="1">
          <mxGeometry width="50" height="50" relative="1" as="geometry">
            <mxPoint x="470" y="560" as="sourcePoint" />
            <mxPoint x="470.81999999999994" y="749.1999999999999" as="targetPoint" />
          </mxGeometry>
        </mxCell>
        <mxCell id="h4kbXoZ9OTJhTepq6cxY-50" value="Posts new entry" style="edgeLabel;html=1;align=center;verticalAlign=middle;resizable=0;points=[];" parent="h4kbXoZ9OTJhTepq6cxY-49" vertex="1" connectable="0">
          <mxGeometry x="-0.1789" y="-2" relative="1" as="geometry">
            <mxPoint x="5" y="2" as="offset" />
          </mxGeometry>
        </mxCell>
        <mxCell id="h4kbXoZ9OTJhTepq6cxY-51" value="" style="endArrow=classic;html=1;rounded=0;exitX=0.294;exitY=0.021;exitDx=0;exitDy=0;exitPerimeter=0;entryX=0.382;entryY=0.979;entryDx=0;entryDy=0;entryPerimeter=0;" parent="WIyWlLk6GJQsqaUBKTNV-1" source="h4kbXoZ9OTJhTepq6cxY-3" target="h4kbXoZ9OTJhTepq6cxY-9" edge="1">
          <mxGeometry width="50" height="50" relative="1" as="geometry">
            <mxPoint x="390" y="580" as="sourcePoint" />
            <mxPoint x="440" y="530" as="targetPoint" />
          </mxGeometry>
        </mxCell>
        <mxCell id="h4kbXoZ9OTJhTepq6cxY-52" value="Get pending reqs" style="edgeLabel;html=1;align=center;verticalAlign=middle;resizable=0;points=[];" parent="h4kbXoZ9OTJhTepq6cxY-51" vertex="1" connectable="0">
          <mxGeometry x="0.508" y="4" relative="1" as="geometry">
            <mxPoint x="-7" y="9" as="offset" />
          </mxGeometry>
        </mxCell>
        <mxCell id="h4kbXoZ9OTJhTepq6cxY-54" value="" style="endArrow=classic;startArrow=classic;html=1;rounded=0;entryX=0.313;entryY=0.979;entryDx=0;entryDy=0;entryPerimeter=0;exitX=0.878;exitY=0.146;exitDx=0;exitDy=0;exitPerimeter=0;" parent="WIyWlLk6GJQsqaUBKTNV-1" source="h4kbXoZ9OTJhTepq6cxY-3" target="h4kbXoZ9OTJhTepq6cxY-0" edge="1">
          <mxGeometry width="50" height="50" relative="1" as="geometry">
            <mxPoint x="440" y="750" as="sourcePoint" />
            <mxPoint x="550" y="540" as="targetPoint" />
          </mxGeometry>
        </mxCell>
        <mxCell id="h4kbXoZ9OTJhTepq6cxY-55" value="Checks&amp;nbsp;&lt;div&gt;Access Permission&lt;/div&gt;" style="edgeLabel;html=1;align=center;verticalAlign=middle;resizable=0;points=[];" parent="h4kbXoZ9OTJhTepq6cxY-54" vertex="1" connectable="0">
          <mxGeometry x="0.5202" relative="1" as="geometry">
            <mxPoint y="6" as="offset" />
          </mxGeometry>
        </mxCell>
        <mxCell id="h4kbXoZ9OTJhTepq6cxY-56" value="CoinCap API" style="rounded=1;whiteSpace=wrap;html=1;" parent="WIyWlLk6GJQsqaUBKTNV-1" vertex="1">
          <mxGeometry x="660" y="1090" width="100" height="50" as="geometry" />
        </mxCell>
        <mxCell id="h4kbXoZ9OTJhTepq6cxY-57" value="" style="endArrow=classic;startArrow=classic;html=1;rounded=0;exitX=0.383;exitY=0;exitDx=0;exitDy=0;exitPerimeter=0;entryX=0.667;entryY=1;entryDx=0;entryDy=0;entryPerimeter=0;" parent="WIyWlLk6GJQsqaUBKTNV-1" source="h4kbXoZ9OTJhTepq6cxY-56" target="h4kbXoZ9OTJhTepq6cxY-0" edge="1">
          <mxGeometry width="50" height="50" relative="1" as="geometry">
            <mxPoint x="540" y="600" as="sourcePoint" />
            <mxPoint x="562" y="525" as="targetPoint" />
          </mxGeometry>
        </mxCell>
        <mxCell id="h4kbXoZ9OTJhTepq6cxY-58" value="" style="endArrow=classic;startArrow=classic;html=1;rounded=0;entryX=0.618;entryY=0.979;entryDx=0;entryDy=0;entryPerimeter=0;exitX=0.975;exitY=0.427;exitDx=0;exitDy=0;exitPerimeter=0;" parent="WIyWlLk6GJQsqaUBKTNV-1" source="h4kbXoZ9OTJhTepq6cxY-3" target="WIyWlLk6GJQsqaUBKTNV-12" edge="1">
          <mxGeometry width="50" height="50" relative="1" as="geometry">
            <mxPoint x="670" y="670" as="sourcePoint" />
            <mxPoint x="720" y="620" as="targetPoint" />
            <Array as="points">
              <mxPoint x="760" y="860" />
            </Array>
          </mxGeometry>
        </mxCell>
        <mxCell id="h4kbXoZ9OTJhTepq6cxY-59" value="Fetches Dataset info" style="edgeLabel;html=1;align=center;verticalAlign=middle;resizable=0;points=[];" parent="h4kbXoZ9OTJhTepq6cxY-58" vertex="1" connectable="0">
          <mxGeometry x="0.4475" y="-1" relative="1" as="geometry">
            <mxPoint x="9" y="56" as="offset" />
          </mxGeometry>
        </mxCell>
        <mxCell id="h4kbXoZ9OTJhTepq6cxY-60" value="" style="endArrow=classic;startArrow=classic;html=1;rounded=0;entryX=0.551;entryY=1;entryDx=0;entryDy=0;entryPerimeter=0;exitX=0.538;exitY=0.012;exitDx=0;exitDy=0;exitPerimeter=0;" parent="WIyWlLk6GJQsqaUBKTNV-1" source="WIyWlLk6GJQsqaUBKTNV-7" target="WIyWlLk6GJQsqaUBKTNV-3" edge="1">
          <mxGeometry width="50" height="50" relative="1" as="geometry">
            <mxPoint x="390" y="360" as="sourcePoint" />
            <mxPoint x="440" y="310" as="targetPoint" />
          </mxGeometry>
        </mxCell>
        <mxCell id="h4kbXoZ9OTJhTepq6cxY-62" value="" style="shape=image;html=1;verticalAlign=top;verticalLabelPosition=bottom;labelBackgroundColor=#ffffff;imageAspect=0;aspect=fixed;image=https://cdn1.iconfinder.com/data/icons/unicons-line-vol-3/24/docker-128.png" parent="WIyWlLk6GJQsqaUBKTNV-1" vertex="1">
          <mxGeometry x="190" y="665" width="30" height="30" as="geometry" />
        </mxCell>
        <mxCell id="h4kbXoZ9OTJhTepq6cxY-64" value="" style="shape=image;html=1;verticalAlign=top;verticalLabelPosition=bottom;labelBackgroundColor=#ffffff;imageAspect=0;aspect=fixed;image=https://cdn1.iconfinder.com/data/icons/unicons-line-vol-3/24/docker-128.png" parent="WIyWlLk6GJQsqaUBKTNV-1" vertex="1">
          <mxGeometry x="414" y="660" width="30" height="30" as="geometry" />
        </mxCell>
        <mxCell id="h4kbXoZ9OTJhTepq6cxY-65" value="" style="shape=image;html=1;verticalAlign=top;verticalLabelPosition=bottom;labelBackgroundColor=#ffffff;imageAspect=0;aspect=fixed;image=https://cdn1.iconfinder.com/data/icons/unicons-line-vol-3/24/docker-128.png" parent="WIyWlLk6GJQsqaUBKTNV-1" vertex="1">
          <mxGeometry x="640" y="670" width="30" height="30" as="geometry" />
        </mxCell>
        <mxCell id="h4kbXoZ9OTJhTepq6cxY-66" value="" style="shape=image;html=1;verticalAlign=top;verticalLabelPosition=bottom;labelBackgroundColor=#ffffff;imageAspect=0;aspect=fixed;image=https://cdn1.iconfinder.com/data/icons/unicons-line-vol-3/24/docker-128.png" parent="WIyWlLk6GJQsqaUBKTNV-1" vertex="1">
          <mxGeometry x="470" y="450" width="30" height="30" as="geometry" />
        </mxCell>
        <mxCell id="h4kbXoZ9OTJhTepq6cxY-67" value="" style="shape=image;html=1;verticalAlign=top;verticalLabelPosition=bottom;labelBackgroundColor=#ffffff;imageAspect=0;aspect=fixed;image=https://cdn1.iconfinder.com/data/icons/unicons-line-vol-3/24/docker-128.png" parent="WIyWlLk6GJQsqaUBKTNV-1" vertex="1">
          <mxGeometry x="210" y="450" width="30" height="30" as="geometry" />
        </mxCell>
        <mxCell id="h4kbXoZ9OTJhTepq6cxY-68" value="" style="shape=image;html=1;verticalAlign=top;verticalLabelPosition=bottom;labelBackgroundColor=#ffffff;imageAspect=0;aspect=fixed;image=https://cdn1.iconfinder.com/data/icons/unicons-line-vol-3/24/docker-128.png" parent="WIyWlLk6GJQsqaUBKTNV-1" vertex="1">
          <mxGeometry x="740" y="455" width="30" height="30" as="geometry" />
        </mxCell>
        <mxCell id="h4kbXoZ9OTJhTepq6cxY-69" value="ECS cluster" style="sketch=0;points=[[0,0,0],[0.25,0,0],[0.5,0,0],[0.75,0,0],[1,0,0],[0,1,0],[0.25,1,0],[0.5,1,0],[0.75,1,0],[1,1,0],[0,0.25,0],[0,0.5,0],[0,0.75,0],[1,0.25,0],[1,0.5,0],[1,0.75,0]];outlineConnect=0;fontColor=#232F3E;fillColor=#ED7100;strokeColor=#ffffff;dashed=0;verticalLabelPosition=bottom;verticalAlign=top;align=center;html=1;fontSize=12;fontStyle=0;aspect=fixed;shape=mxgraph.aws4.resourceIcon;resIcon=mxgraph.aws4.ecs;" parent="WIyWlLk6GJQsqaUBKTNV-1" vertex="1">
          <mxGeometry x="650" y="342" width="58" height="58" as="geometry" />
        </mxCell>
        <mxCell id="h4kbXoZ9OTJhTepq6cxY-73" value="" style="edgeStyle=orthogonalEdgeStyle;rounded=0;orthogonalLoop=1;jettySize=auto;html=1;" parent="WIyWlLk6GJQsqaUBKTNV-1" source="h4kbXoZ9OTJhTepq6cxY-33" target="h4kbXoZ9OTJhTepq6cxY-72" edge="1">
          <mxGeometry relative="1" as="geometry">
            <mxPoint x="130" y="398" as="sourcePoint" />
            <mxPoint x="310" y="120" as="targetPoint" />
            <Array as="points" />
          </mxGeometry>
        </mxCell>
        <mxCell id="h4kbXoZ9OTJhTepq6cxY-72" value="SQS" style="sketch=0;points=[[0,0,0],[0.25,0,0],[0.5,0,0],[0.75,0,0],[1,0,0],[0,1,0],[0.25,1,0],[0.5,1,0],[0.75,1,0],[1,1,0],[0,0.25,0],[0,0.5,0],[0,0.75,0],[1,0.25,0],[1,0.5,0],[1,0.75,0]];outlineConnect=0;fontColor=#232F3E;fillColor=#E7157B;strokeColor=#ffffff;dashed=0;verticalLabelPosition=bottom;verticalAlign=top;align=center;html=1;fontSize=12;fontStyle=0;aspect=fixed;shape=mxgraph.aws4.resourceIcon;resIcon=mxgraph.aws4.sqs;" parent="WIyWlLk6GJQsqaUBKTNV-1" vertex="1">
          <mxGeometry x="140" y="184" width="60" height="60" as="geometry" />
        </mxCell>
        <mxCell id="h4kbXoZ9OTJhTepq6cxY-75" value="Fargate" style="sketch=0;points=[[0,0,0],[0.25,0,0],[0.5,0,0],[0.75,0,0],[1,0,0],[0,1,0],[0.25,1,0],[0.5,1,0],[0.75,1,0],[1,1,0],[0,0.25,0],[0,0.5,0],[0,0.75,0],[1,0.25,0],[1,0.5,0],[1,0.75,0]];outlineConnect=0;fontColor=#232F3E;fillColor=#ED7100;strokeColor=#ffffff;dashed=0;verticalLabelPosition=bottom;verticalAlign=top;align=center;html=1;fontSize=12;fontStyle=0;aspect=fixed;shape=mxgraph.aws4.resourceIcon;resIcon=mxgraph.aws4.fargate;" parent="WIyWlLk6GJQsqaUBKTNV-1" vertex="1">
          <mxGeometry x="270" y="392" width="58" height="58" as="geometry" />
        </mxCell>
        <mxCell id="h4kbXoZ9OTJhTepq6cxY-77" value="RDS" style="sketch=0;points=[[0,0,0],[0.25,0,0],[0.5,0,0],[0.75,0,0],[1,0,0],[0,1,0],[0.25,1,0],[0.5,1,0],[0.75,1,0],[1,1,0],[0,0.25,0],[0,0.5,0],[0,0.75,0],[1,0.25,0],[1,0.5,0],[1,0.75,0]];outlineConnect=0;fontColor=#232F3E;fillColor=#C925D1;strokeColor=#ffffff;dashed=0;verticalLabelPosition=bottom;verticalAlign=top;align=center;html=1;fontSize=12;fontStyle=0;aspect=fixed;shape=mxgraph.aws4.resourceIcon;resIcon=mxgraph.aws4.rds;" parent="WIyWlLk6GJQsqaUBKTNV-1" vertex="1">
          <mxGeometry x="373" y="900" width="44" height="44" as="geometry" />
        </mxCell>
        <mxCell id="h4kbXoZ9OTJhTepq6cxY-81" value="" style="sketch=0;points=[[0,0,0],[0.25,0,0],[0.5,0,0],[0.75,0,0],[1,0,0],[0,1,0],[0.25,1,0],[0.5,1,0],[0.75,1,0],[1,1,0],[0,0.25,0],[0,0.5,0],[0,0.75,0],[1,0.25,0],[1,0.5,0],[1,0.75,0]];outlineConnect=0;fontColor=#232F3E;fillColor=#8C4FFF;strokeColor=#ffffff;dashed=0;verticalLabelPosition=bottom;verticalAlign=top;align=center;html=1;fontSize=12;fontStyle=0;aspect=fixed;shape=mxgraph.aws4.resourceIcon;resIcon=mxgraph.aws4.api_gateway;" parent="WIyWlLk6GJQsqaUBKTNV-1" vertex="1">
          <mxGeometry x="482" y="190" width="48" height="48" as="geometry" />
        </mxCell>
        <mxCell id="h4kbXoZ9OTJhTepq6cxY-86" value="CloudWatch&lt;div&gt;&lt;br&gt;&lt;/div&gt;" style="sketch=0;points=[[0,0,0],[0.25,0,0],[0.5,0,0],[0.75,0,0],[1,0,0],[0,1,0],[0.25,1,0],[0.5,1,0],[0.75,1,0],[1,1,0],[0,0.25,0],[0,0.5,0],[0,0.75,0],[1,0.25,0],[1,0.5,0],[1,0.75,0]];points=[[0,0,0],[0.25,0,0],[0.5,0,0],[0.75,0,0],[1,0,0],[0,1,0],[0.25,1,0],[0.5,1,0],[0.75,1,0],[1,1,0],[0,0.25,0],[0,0.5,0],[0,0.75,0],[1,0.25,0],[1,0.5,0],[1,0.75,0]];outlineConnect=0;fontColor=#232F3E;fillColor=#E7157B;strokeColor=#ffffff;dashed=0;verticalLabelPosition=bottom;verticalAlign=top;align=center;html=1;fontSize=12;fontStyle=0;aspect=fixed;shape=mxgraph.aws4.resourceIcon;resIcon=mxgraph.aws4.cloudwatch_2;" parent="WIyWlLk6GJQsqaUBKTNV-1" vertex="1">
          <mxGeometry x="702" y="106" width="78" height="78" as="geometry" />
        </mxCell>
      </root>
    </mxGraphModel>
  </diagram>
</mxfile>
